<?xml version="1.0" encoding="UTF-8" standalone="no"?>
<!-- Created with Inkscape (http://www.inkscape.org/) -->

<svg
   width="314"
   height="614"
   viewBox="0 0 83.079166 162.45416"
   version="1.1"
   id="svg1"
   inkscape:version="1.3.1 (9b9bdc1480, 2023-11-25, custom)"
   sodipodi:docname="wizard.svg"
   xmlns:inkscape="http://www.inkscape.org/namespaces/inkscape"
   xmlns:sodipodi="http://sodipodi.sourceforge.net/DTD/sodipodi-0.dtd"
   xmlns="http://www.w3.org/2000/svg"
   xmlns:svg="http://www.w3.org/2000/svg">
  <sodipodi:namedview
     id="namedview1"
     pagecolor="#505050"
     bordercolor="#eeeeee"
     borderopacity="1"
     inkscape:showpageshadow="0"
     inkscape:pageopacity="0"
     inkscape:pagecheckerboard="0"
     inkscape:deskcolor="#505050"
     inkscape:document-units="px"
     inkscape:zoom="0.5"
     inkscape:cx="39"
     inkscape:cy="426"
     inkscape:window-width="1360"
     inkscape:window-height="704"
     inkscape:window-x="0"
     inkscape:window-y="27"
     inkscape:window-maximized="1"
     inkscape:current-layer="layer1"
     showgrid="false"
     showguides="true" />
  <defs
     id="defs1">
    <inkscape:path-effect
       effect="skeletal"
       id="path-effect21"
       is_visible="true"
       lpeversion="1"
       pattern="m 0.4296832,0.95567499 q -0.1703916,0 -0.3037416,-0.13335 Q 0,0.681566 0,0.481541 0,0.28151701 0.13335,0.140758 0.26669989,0 0.4370915,0 q 0.1852082,0 0.30374151,0.140758 0.12594158,0.14075901 0.12594158,0.340783 0,0.200025 -0.13334989,0.34078399 -0.13335,0.13335 -0.3037415,0.13335 z"
       copytype="repeated"
       prop_scale="0.5"
       scale_y_rel="true"
       spacing="0.4"
       normal_offset="0.5"
       tang_offset="0.1"
       prop_units="false"
       vertical_pattern="false"
       hide_knot="false"
       fuse_tolerance="0" />
    <inkscape:path-effect
       effect="skeletal"
       id="path-effect20"
       is_visible="true"
       lpeversion="1"
       pattern="M 0,0 H 1"
       copytype="single_stretched"
       prop_scale="1"
       scale_y_rel="false"
       spacing="0"
       normal_offset="0"
       tang_offset="0"
       prop_units="false"
       vertical_pattern="false"
       hide_knot="false"
       fuse_tolerance="0" />
    <inkscape:path-effect
       effect="bend_path"
       id="path-effect19"
       is_visible="true"
       lpeversion="1"
       bendpath="m 0.42968333,0.95567502 q -0.1703916,0 -0.3037416,-0.13335 Q 1.2860229e-7,0.681567 1.2860229e-7,0.481542 1.2860229e-7,0.28151701 0.13335013,0.14075901 0.26670002,1.0069987e-6 0.43709164,1.0069987e-6 q 0.18520819,0 0.3037415,0.1407580030013 0.12594159,0.140758 0.12594159,0.34078299 0,0.200025 -0.1333499,0.34078302 -0.13335,0.13335 -0.3037415,0.13335 z"
       prop_scale="1"
       scale_y_rel="true"
       vertical="false"
       hide_knot="true" />
    <inkscape:path-effect
       effect="skeletal"
       id="path-effect18"
       is_visible="true"
       lpeversion="1"
       pattern="M 0,0 H 1"
       copytype="single_stretched"
       prop_scale="1"
       scale_y_rel="false"
       spacing="0"
       normal_offset="0"
       tang_offset="0"
       prop_units="false"
       vertical_pattern="false"
       hide_knot="false"
       fuse_tolerance="0" />
    <inkscape:path-effect
       effect="fillet_chamfer"
       id="path-effect17"
       is_visible="true"
       lpeversion="1"
       nodesatellites_param="F,0,0,1,0,0,0,1 @ F,0,0,1,0,0,0,1 @ F,0,0,1,0,0,0,1 @ F,0,0,1,0,0,0,1"
       radius="0"
       unit="px"
       method="auto"
       mode="F"
       chamfer_steps="1"
       flexible="false"
       use_knot_distance="true"
       apply_no_radius="true"
       apply_with_radius="true"
       only_selected="false"
       hide_knots="false" />
    <inkscape:path-effect
       effect="offset"
       id="path-effect16"
       is_visible="true"
       lpeversion="1.2"
       linejoin_type="miter"
       unit="mm"
       offset="0"
       miter_limit="4"
       attempt_force_join="false"
       update_on_knot_move="true" />
    <inkscape:path-effect
       effect="powerstroke"
       id="path-effect14"
       is_visible="true"
       lpeversion="1.3"
       scale_width="1"
       interpolator_type="CentripetalCatmullRom"
       interpolator_beta="0.2"
       start_linecap_type="zerowidth"
       end_linecap_type="zerowidth"
       offset_points="2,0.058138616"
       linejoin_type="round"
       miter_limit="4"
       not_jump="false"
       sort_points="true"
       message="matrix(-5.0403909,0,0,4.7508364,196.41034,-82.910882)" />
    <inkscape:path-effect
       effect="knot"
       id="path-effect13"
       is_visible="true"
       lpeversion="1"
       switcher_size="15"
       interruption_width="3"
       prop_to_stroke_width="true"
       add_stroke_width="inkscape_1.0_and_up"
       both="false"
       inverse_width="false"
       add_other_stroke_width="inkscape_1.0_and_up"
       crossing_points_vector="" />
    <inkscape:path-effect
       effect="simplify"
       id="path-effect12"
       is_visible="true"
       lpeversion="1.3"
       threshold="5"
       steps="1"
       smooth_angles="360"
       helper_size="10"
       simplify_individual_paths="false"
       simplify_just_coalesce="false" />
    <inkscape:path-effect
       effect="roughen"
       id="path-effect11"
       is_visible="true"
       lpeversion="1.2"
       global_randomize="1;1"
       displace_x="10;1"
       displace_y="10;1"
       method="size"
       max_segment_size="0.179917"
       segments="2"
       handles="along"
       shift_nodes="true"
       fixed_displacement="false"
       spray_tool_friendly="false" />
    <inkscape:path-effect
       effect="lattice2"
       gridpoint0="9.4636655,22.91742"
       gridpoint1="18.459499,22.91742"
       gridpoint2="9.4636655,31.913253"
       gridpoint3="18.459499,31.913253"
       gridpoint4="11.712624,22.91742"
       gridpoint5="16.210541,22.91742"
       gridpoint6="11.712624,31.913253"
       gridpoint7="16.210541,31.913253"
       gridpoint8x9="13.961582,22.91742"
       gridpoint10x11="13.961582,31.913253"
       gridpoint12="9.4636655,25.166378"
       gridpoint13="18.459499,25.166378"
       gridpoint14="9.4636655,29.664295"
       gridpoint15="18.459499,29.664295"
       gridpoint16="11.712624,25.166378"
       gridpoint17="16.210541,25.166378"
       gridpoint18="11.712624,29.664295"
       gridpoint19="16.210541,29.664295"
       gridpoint20x21="13.961582,25.166378"
       gridpoint22x23="13.961582,29.664295"
       gridpoint24x26="9.4636655,27.415337"
       gridpoint25x27="18.459499,27.415337"
       gridpoint28x30="11.712624,27.415337"
       gridpoint29x31="16.210541,27.415337"
       gridpoint32x33x34x35="13.961582,27.415337"
       id="path-effect10"
       is_visible="true"
       lpeversion="1"
       horizontal_mirror="false"
       vertical_mirror="false"
       perimetral="false"
       live_update="true" />
    <inkscape:path-effect
       effect="envelope"
       id="path-effect9"
       is_visible="true"
       lpeversion="1"
       yy="true"
       xx="true"
       bendpath1="M 9.4636655,22.91742 H 18.459499"
       bendpath2="m 18.459499,22.91742 v 8.995833"
       bendpath3="M 9.4636655,31.913253 H 18.459499"
       bendpath4="m 9.4636655,22.91742 v 8.995833" />
    <inkscape:path-effect
       effect="transform_2pts"
       start="18.459499,27.415337"
       end="13.961582,22.91742"
       id="path-effect8"
       is_visible="true"
       lpeversion="1"
       first_knot="1"
       last_knot="4"
       helper_size="3"
       stretch="1"
       offset="0"
       elastic="false"
       from_original_width="false"
       flip_vertical="false"
       flip_horizontal="false"
       lock_length="false"
       lock_angle="false" />
    <inkscape:path-effect
       effect="fill_between_many"
       id="path-effect7"
       is_visible="true"
       lpeversion="1.2"
       linkedpaths=""
       method="bsplinespiro"
       join="true"
       close="true"
       autoreverse="true" />
    <inkscape:path-effect
       effect="taper_stroke"
       start_shape="center | center"
       end_shape="center | center"
       id="path-effect5"
       is_visible="true"
       lpeversion="1"
       stroke_width="0.439473"
       subpath="1"
       attach_start="0.2"
       end_offset="0.2"
       start_smoothing="0.5"
       end_smoothing="0.5"
       jointype="extrapolated"
       miter_limit="100" />
    <inkscape:path-effect
       effect="skeletal"
       id="path-effect4"
       is_visible="true"
       lpeversion="1"
       pattern="m 0.42968333,0.95567502 q -0.1703916,0 -0.3037416,-0.13335 Q 1.2860229e-7,0.681567 1.2860229e-7,0.481542 1.2860229e-7,0.28151701 0.13335013,0.14075901 0.26670002,1.0069987e-6 0.43709164,1.0069987e-6 q 0.18520819,0 0.3037415,0.1407580030013 0.12594159,0.140758 0.12594159,0.34078299 0,0.200025 -0.1333499,0.34078302 -0.13335,0.13335 -0.3037415,0.13335 z"
       copytype="repeated_stretched"
       prop_scale="1"
       scale_y_rel="true"
       spacing="1"
       normal_offset="1"
       tang_offset="0.1"
       prop_units="false"
       vertical_pattern="true"
       hide_knot="false"
       fuse_tolerance="0" />
    <inkscape:path-effect
       effect="skeletal"
       id="path-effect3"
       is_visible="true"
       lpeversion="1"
       pattern="m 0.42968333,0.95567502 q -0.1703916,0 -0.3037416,-0.13335 Q 1.2860229e-7,0.681567 1.2860229e-7,0.481542 1.2860229e-7,0.28151701 0.13335013,0.14075901 0.26670002,1.0069987e-6 0.43709164,1.0069987e-6 q 0.18520819,0 0.3037415,0.1407580030013 0.12594159,0.140758 0.12594159,0.34078299 0,0.200025 -0.1333499,0.34078302 -0.13335,0.13335 -0.3037415,0.13335 z"
       copytype="repeated_stretched"
       prop_scale="1"
       scale_y_rel="false"
       spacing="0"
       normal_offset="0.9"
       tang_offset="0.3"
       prop_units="false"
       vertical_pattern="false"
       hide_knot="false"
       fuse_tolerance="0" />
    <inkscape:path-effect
       effect="skeletal"
       id="path-effect2"
       is_visible="true"
       lpeversion="1"
       pattern="M 0.29633328,3.6004484 0.00740837,0.54080806 q -0.014817,-0.1926165 0.0889,-0.36300809 Q 0.20743327,-3.1985458e-8 0.43709148,-3.1985458e-8 q 0.23706658,0 0.33337489,0.177800001985458 0.10371661,0.17039159 0.0889,0.36300809 L 0.57044147,3.6004484 Z m 0.13334989,1.8224492 q -0.1703916,0 -0.3037415,-0.13335 Q 7.3603145e-8,5.1487895 7.3603145e-8,4.9487645 q 0,-0.200025 0.133349896396855,-0.3407833 0.13335,-0.1407581 0.30374151,-0.1407581 0.1852083,0 0.30374158,0.1407581 0.12594161,0.1407583 0.12594161,0.3407833 0,0.200025 -0.13335,0.3407831 -0.13334989,0.13335 -0.3037415,0.13335 z"
       copytype="repeated_stretched"
       prop_scale="1"
       scale_y_rel="true"
       spacing="1"
       normal_offset="1.2"
       tang_offset="0"
       prop_units="false"
       vertical_pattern="false"
       hide_knot="false"
       fuse_tolerance="0" />
    <inkscape:path-effect
       effect="skeletal"
       id="path-effect1"
       is_visible="true"
       lpeversion="1"
       pattern="m 1.4298076,3.911597 q -0.2148416,0 -0.4074582,-0.111125 -0.18520817,-0.111125 -0.18520817,-0.385233 0,-0.1629828 0.096308,-0.3037419 Q 1.0297572,2.970739 1.1853325,2.8299812 1.3483157,2.6892231 1.5187073,2.5410561 q 0.2815165,-0.237067 0.5185831,-0.5334 0.2370666,-0.303741 0.2518832,-0.733424 0.00741,-0.274109 -0.074083,-0.49635801 -0.081492,-0.22225 -0.2815165,-0.35559999 -0.2000249,-0.13335 -0.5482164,-0.13335 -0.2074333,0 -0.39264147,0.08149 -0.17779992,0.08149 -0.28892492,0.20743399 -0.11112489,0.11853299 -0.13334989,0.237066 0.037042,0.05927 0.059267,0.13335 0.029633,0.07408 0.029633,0.15557501 0,0.05927 -0.037042,0.140758 -0.037042,0.07408 -0.111125,0.125942 -0.074083,0.05186 -0.19261648,0.05186 Q 0.15557462,1.4075791 0.07408302,1.3038661 2.2647073e-8,1.1927411 2.2647073e-8,1.0297581 2.2647073e-8,0.81491608 0.17779992,0.57785007 0.36300812,0.33337508 0.69638303,0.17039109 1.0297578,8.5463273e-8 1.4964826,8.5463273e-8 q 0.5778498,0 0.9038163,0.192615994536727 0.3333747,0.19261701 0.4667247,0.48895 Q 3.007782,0.97789909 2.9929653,1.2890491 2.9707403,1.5927911 2.7929403,1.8446741 2.6225488,2.0891491 2.3780739,2.2965821 2.133599,2.5040151 1.8965324,2.681815 1.6594659,2.859615 1.4964826,3.0225981 1.3334994,3.1781731 1.3334994,3.32634 q 0,0.0889 0.066675,0.170392 0.074083,0.07408 0.2444749,0.07408 0.059267,0 0.13335,-0.0074 0.074083,-0.014819 0.1407582,-0.04445 l 0.0889,0.2592912 Q 1.8891242,3.8449332 1.7261409,3.8819701 1.5631577,3.9116 1.4298078,3.9116 Z m 0.04445,1.511299 q -0.1481666,0 -0.2741082,-0.1185328 -0.1259416,-0.111125 -0.1259416,-0.3185581 0,-0.1778 0.1259416,-0.3037419 0.1259416,-0.13335 0.2741082,-0.13335 0.1703916,0 0.2815166,0.13335 0.1185332,0.1259419 0.1185332,0.3037419 0,0.1852081 -0.1185332,0.31115 Q 1.6446492,5.422896 1.4742576,5.422896 Z"
       copytype="repeated_stretched"
       prop_scale="1"
       scale_y_rel="true"
       spacing="1"
       normal_offset="1"
       tang_offset="0.1"
       prop_units="false"
       vertical_pattern="false"
       hide_knot="false"
       fuse_tolerance="0" />
    <inkscape:path-effect
       effect="fill_between_many"
       method="bsplinespiro"
       autoreverse="false"
       close="false"
       join="false"
       linkedpaths="#path3,0,1"
       id="path-effect6"
       is_visible="true"
       lpeversion="0" />
    <inkscape:path-effect
       effect="fill_between_many"
       method="bsplinespiro"
       autoreverse="false"
       close="false"
       join="false"
       linkedpaths="#path3,0,1"
       id="path-effect15"
       is_visible="true"
       lpeversion="0" />
    <inkscape:path-effect
       effect="skeletal"
       id="path-effect2-3"
       is_visible="true"
       lpeversion="1"
       pattern="M 0.29633328,3.6004484 0.00740837,0.54080806 q -0.014817,-0.1926165 0.0889,-0.36300809 Q 0.20743327,-3.1985458e-8 0.43709148,-3.1985458e-8 q 0.23706658,0 0.33337489,0.177800001985458 0.10371661,0.17039159 0.0889,0.36300809 L 0.57044147,3.6004484 Z m 0.13334989,1.8224492 q -0.1703916,0 -0.3037415,-0.13335 Q 7.3603145e-8,5.1487895 7.3603145e-8,4.9487645 q 0,-0.200025 0.133349896396855,-0.3407833 0.13335,-0.1407581 0.30374151,-0.1407581 0.1852083,0 0.30374158,0.1407581 0.12594161,0.1407583 0.12594161,0.3407833 0,0.200025 -0.13335,0.3407831 -0.13334989,0.13335 -0.3037415,0.13335 z"
       copytype="repeated_stretched"
       prop_scale="1"
       scale_y_rel="true"
       spacing="2.3"
       normal_offset="0.9"
       tang_offset="0.1"
       prop_units="false"
       vertical_pattern="true"
       hide_knot="false"
       fuse_tolerance="0" />
    <inkscape:path-effect
       effect="skeletal"
       id="path-effect1-6"
       is_visible="true"
       lpeversion="1"
       pattern="m 1.4298076,3.911597 q -0.2148416,0 -0.4074582,-0.111125 -0.18520817,-0.111125 -0.18520817,-0.385233 0,-0.1629828 0.096308,-0.3037419 Q 1.0297572,2.970739 1.1853325,2.8299812 1.3483157,2.6892231 1.5187073,2.5410561 q 0.2815165,-0.237067 0.5185831,-0.5334 0.2370666,-0.303741 0.2518832,-0.733424 0.00741,-0.274109 -0.074083,-0.49635801 -0.081492,-0.22225 -0.2815165,-0.35559999 -0.2000249,-0.13335 -0.5482164,-0.13335 -0.2074333,0 -0.39264147,0.08149 -0.17779992,0.08149 -0.28892492,0.20743399 -0.11112489,0.11853299 -0.13334989,0.237066 0.037042,0.05927 0.059267,0.13335 0.029633,0.07408 0.029633,0.15557501 0,0.05927 -0.037042,0.140758 -0.037042,0.07408 -0.111125,0.125942 -0.074083,0.05186 -0.19261648,0.05186 Q 0.15557462,1.4075791 0.07408302,1.3038661 2.2647073e-8,1.1927411 2.2647073e-8,1.0297581 2.2647073e-8,0.81491608 0.17779992,0.57785007 0.36300812,0.33337508 0.69638303,0.17039109 1.0297578,8.5463273e-8 1.4964826,8.5463273e-8 q 0.5778498,0 0.9038163,0.192615994536727 0.3333747,0.19261701 0.4667247,0.48895 Q 3.007782,0.97789909 2.9929653,1.2890491 2.9707403,1.5927911 2.7929403,1.8446741 2.6225488,2.0891491 2.3780739,2.2965821 2.133599,2.5040151 1.8965324,2.681815 1.6594659,2.859615 1.4964826,3.0225981 1.3334994,3.1781731 1.3334994,3.32634 q 0,0.0889 0.066675,0.170392 0.074083,0.07408 0.2444749,0.07408 0.059267,0 0.13335,-0.0074 0.074083,-0.014819 0.1407582,-0.04445 l 0.0889,0.2592912 Q 1.8891242,3.8449332 1.7261409,3.8819701 1.5631577,3.9116 1.4298078,3.9116 Z m 0.04445,1.511299 q -0.1481666,0 -0.2741082,-0.1185328 -0.1259416,-0.111125 -0.1259416,-0.3185581 0,-0.1778 0.1259416,-0.3037419 0.1259416,-0.13335 0.2741082,-0.13335 0.1703916,0 0.2815166,0.13335 0.1185332,0.1259419 0.1185332,0.3037419 0,0.1852081 -0.1185332,0.31115 Q 1.6446492,5.422896 1.4742576,5.422896 Z"
       copytype="repeated_stretched"
       prop_scale="1"
       scale_y_rel="true"
       spacing="1"
       normal_offset="1"
       tang_offset="0.1"
       prop_units="false"
       vertical_pattern="true"
       hide_knot="false"
       fuse_tolerance="0" />
    <inkscape:path-effect
       effect="skeletal"
       id="path-effect1-2"
       is_visible="true"
       lpeversion="1"
       pattern="m 1.4298076,3.911597 q -0.2148416,0 -0.4074582,-0.111125 -0.18520817,-0.111125 -0.18520817,-0.385233 0,-0.1629828 0.096308,-0.3037419 Q 1.0297572,2.970739 1.1853325,2.8299812 1.3483157,2.6892231 1.5187073,2.5410561 q 0.2815165,-0.237067 0.5185831,-0.5334 0.2370666,-0.303741 0.2518832,-0.733424 0.00741,-0.274109 -0.074083,-0.49635801 -0.081492,-0.22225 -0.2815165,-0.35559999 -0.2000249,-0.13335 -0.5482164,-0.13335 -0.2074333,0 -0.39264147,0.08149 -0.17779992,0.08149 -0.28892492,0.20743399 -0.11112489,0.11853299 -0.13334989,0.237066 0.037042,0.05927 0.059267,0.13335 0.029633,0.07408 0.029633,0.15557501 0,0.05927 -0.037042,0.140758 -0.037042,0.07408 -0.111125,0.125942 -0.074083,0.05186 -0.19261648,0.05186 Q 0.15557462,1.4075791 0.07408302,1.3038661 2.2647073e-8,1.1927411 2.2647073e-8,1.0297581 2.2647073e-8,0.81491608 0.17779992,0.57785007 0.36300812,0.33337508 0.69638303,0.17039109 1.0297578,8.5463273e-8 1.4964826,8.5463273e-8 q 0.5778498,0 0.9038163,0.192615994536727 0.3333747,0.19261701 0.4667247,0.48895 Q 3.007782,0.97789909 2.9929653,1.2890491 2.9707403,1.5927911 2.7929403,1.8446741 2.6225488,2.0891491 2.3780739,2.2965821 2.133599,2.5040151 1.8965324,2.681815 1.6594659,2.859615 1.4964826,3.0225981 1.3334994,3.1781731 1.3334994,3.32634 q 0,0.0889 0.066675,0.170392 0.074083,0.07408 0.2444749,0.07408 0.059267,0 0.13335,-0.0074 0.074083,-0.014819 0.1407582,-0.04445 l 0.0889,0.2592912 Q 1.8891242,3.8449332 1.7261409,3.8819701 1.5631577,3.9116 1.4298078,3.9116 Z m 0.04445,1.511299 q -0.1481666,0 -0.2741082,-0.1185328 -0.1259416,-0.111125 -0.1259416,-0.3185581 0,-0.1778 0.1259416,-0.3037419 0.1259416,-0.13335 0.2741082,-0.13335 0.1703916,0 0.2815166,0.13335 0.1185332,0.1259419 0.1185332,0.3037419 0,0.1852081 -0.1185332,0.31115 Q 1.6446492,5.422896 1.4742576,5.422896 Z"
       copytype="repeated_stretched"
       prop_scale="1"
       scale_y_rel="true"
       spacing="1"
       normal_offset="1"
       tang_offset="0.1"
       prop_units="true"
       vertical_pattern="false"
       hide_knot="false"
       fuse_tolerance="0" />
    <inkscape:path-effect
       effect="skeletal"
       id="path-effect2-3-5"
       is_visible="true"
       lpeversion="1"
       pattern="M 0.29633328,3.6004484 0.00740837,0.54080806 q -0.014817,-0.1926165 0.0889,-0.36300809 Q 0.20743327,-3.1985458e-8 0.43709148,-3.1985458e-8 q 0.23706658,0 0.33337489,0.177800001985458 0.10371661,0.17039159 0.0889,0.36300809 L 0.57044147,3.6004484 Z m 0.13334989,1.8224492 q -0.1703916,0 -0.3037415,-0.13335 Q 7.3603145e-8,5.1487895 7.3603145e-8,4.9487645 q 0,-0.200025 0.133349896396855,-0.3407833 0.13335,-0.1407581 0.30374151,-0.1407581 0.1852083,0 0.30374158,0.1407581 0.12594161,0.1407583 0.12594161,0.3407833 0,0.200025 -0.13335,0.3407831 -0.13334989,0.13335 -0.3037415,0.13335 z"
       copytype="repeated_stretched"
       prop_scale="1"
       scale_y_rel="true"
       spacing="2.3"
       normal_offset="0.9"
       tang_offset="0.1"
       prop_units="true"
       vertical_pattern="false"
       hide_knot="false"
       fuse_tolerance="0" />
  </defs>
  <g
     inkscape:label="Слой 1"
     inkscape:groupmode="layer"
     id="layer1">
    <rect
       style="fill:#c5c5c5;fill-opacity:1;stroke-width:1.0413;paint-order:markers fill stroke"
       id="rect239"
       width="83.079163"
       height="162.45403"
       x="-83.079163"
       y="3.0283543e-06"
       inkscape:label="lightgray"
       transform="scale(-1,1)" />
    <g
       id="g213"
       inkscape:label="GtL"
       transform="matrix(1.9146341,0,0,1.9554123,-1.4480563e-6,0)">
      <text
         xml:space="preserve"
         style="font-size:19.05px;font-family:Lora;-inkscape-font-specification:Lora;fill:#212121;fill-opacity:1;stroke-width:0.439473"
         x="5.0080447"
         y="39.020718"
         id="text21"
         inkscape:label="black"><tspan
           sodipodi:role="line"
           id="tspan21"
           style="font-size:19.05px;stroke-width:0.439473"
           x="5.0080447"
           y="39.020718">GtL</tspan></text>
      <path
         id="path2-0-2"
         style="fill:#b71b0f;stroke-width:0.439473"
         d="m 13.332463,16.699719 c 1.086301,0.173494 2.185761,0.263651 3.292709,0.265146 0.139591,7.86e-4 0.273838,0.01078 0.400268,0.04336 0.13168,0.03465 0.197681,0.09169 0.191706,0.160884 -0.0063,0.07273 -0.08064,0.111406 -0.210675,0.108816 -0.126493,6.71e-4 -0.254447,-0.02318 -0.388577,-0.06123 -1.060072,-0.306812 -2.143164,-0.533989 -3.243951,-0.675859 -0.01337,0.05053 -0.02715,0.103446 -0.04148,0.158883 z m -1.935532,-0.355083 c -0.02805,0.125242 -0.0045,0.248468 0.07163,0.356062 0.08323,0.103019 0.196877,0.151844 0.343104,0.155098 0.145527,0.0032 0.279361,-0.04196 0.39946,-0.119565 0.120231,-0.07769 0.190692,-0.159263 0.213007,-0.253021 0.0243,-0.102101 -0.006,-0.188866 -0.08853,-0.274196 -0.08078,-0.08843 -0.191538,-0.155311 -0.330206,-0.191437 -0.139521,-0.03635 -0.269176,-0.02918 -0.390655,0.03617 -0.116314,0.06654 -0.1897,0.165403 -0.217809,0.290893 z m 2.372278,-0.723314 c 0.765483,0.808082 1.582128,1.567403 2.444263,2.272638 0.108012,0.08963 0.198524,0.185896 0.265063,0.296709 0.06857,0.116093 0.06934,0.209318 0.0059,0.269327 -0.06627,0.06264 -0.156798,0.05387 -0.263581,-0.02501 -0.105791,-0.07332 -0.195755,-0.169764 -0.278256,-0.283187 -0.648648,-0.904906 -1.354892,-1.768178 -2.113407,-2.584146 -0.02107,0.017 -0.041,0.03484 -0.05994,0.05366 z m -1.333188,-1.475739 c -0.06115,0.05609 -0.07898,0.144141 -0.04969,0.256297 0.03574,0.113872 0.111705,0.215912 0.221031,0.312186 0.108811,0.09582 0.2198,0.157192 0.325827,0.191564 0.106795,0.03462 0.177524,0.03539 0.219563,-0.0027 0.04559,-0.04135 0.05174,-0.111121 0.02148,-0.216204 -0.02792,-0.105992 -0.08224,-0.219521 -0.170839,-0.334209 -0.089,-0.11521 -0.188067,-0.196616 -0.303883,-0.237735 -0.111705,-0.03671 -0.202342,-0.02526 -0.263488,0.03083 z m 2.418082,1.039793 c 0.05148,1.117339 0.192131,2.220492 0.41627,3.304133 0.02764,0.137031 0.04239,0.265886 0.0333,0.390877 -0.01017,0.129213 -0.05441,0.198257 -0.12258,0.195096 -0.03816,-0.0018 -0.07044,-0.02516 -0.09438,-0.06856 -0.01956,-0.02895 -0.03392,-0.07188 -0.04297,-0.128579 -0.02231,-0.121377 -0.0221,-0.250607 -0.01139,-0.391219 0.06321,-0.784778 0.08199,-1.576581 0.05436,-2.373544 -0.01157,-0.325114 -0.03083,-0.649563 -0.05765,-0.973203 -0.06095,0.01566 -0.119222,0.03061 -0.174958,0.045 z m -0.0419,-2.001401 c -0.134524,0.02701 -0.244811,0.09978 -0.324978,0.216553 -0.07412,0.120825 -0.09119,0.251557 -0.06545,0.393595 0.02558,0.141166 0.08845,0.253959 0.179125,0.335677 0.09159,0.08254 0.181784,0.113515 0.28353,0.09098 0.07437,-0.01647 0.141152,-0.05413 0.202283,-0.113281 0,0 0,0 0,0 0,0 0,0 0,0 0.02992,-0.01635 0.05778,-0.03874 0.08389,-0.06706 0.08351,-0.08441 0.134029,-0.200492 0.142535,-0.344605 0.0085,-0.144797 -0.03052,-0.27838 -0.133504,-0.401151 -0.02894,-0.03295 -0.05994,-0.06234 -0.09292,-0.08816 -0.08456,-0.03451 -0.177922,-0.04194 -0.274513,-0.02255 z m 1.419918,2.306906 c -0.676098,0.88544 -1.294552,1.812278 -1.850036,2.774843 -0.07076,0.120737 -0.149991,0.225634 -0.246812,0.309017 -0.101524,0.08617 -0.190721,0.10251 -0.258904,0.04813 -0.07053,-0.05626 -0.07572,-0.148183 -0.01461,-0.267177 0.05584,-0.117229 0.136629,-0.222069 0.235377,-0.321795 0.788775,-0.785407 1.526152,-1.619526 2.206462,-2.497033 -0.02255,-0.01602 -0.04632,-0.0313 -0.07148,-0.04598 z m 1.244614,-1.553707 c -0.07004,-0.04883 -0.165216,-0.05111 -0.2762,-0.0038 -0.111517,0.05398 -0.202089,0.144737 -0.27905,0.268088 -0.07662,0.122809 -0.115719,0.24183 -0.127571,0.35172 -0.01191,0.110433 0.0035,0.179225 0.05209,0.212398 0.05298,0.03616 0.125187,0.02776 0.225622,-0.02173 0.101674,-0.04742 0.205905,-0.121591 0.304752,-0.227477 0.09932,-0.106391 0.163499,-0.215743 0.183307,-0.333152 0.01617,-0.112876 -0.01291,-0.197198 -0.08295,-0.246023 z m -0.739789,2.375899 c -1.068939,0.272458 -2.114809,0.624315 -3.132284,1.049901 -0.128841,0.053 -0.254383,0.09017 -0.381879,0.102064 -0.132437,0.01151 -0.213087,-0.02275 -0.231605,-0.09506 -0.01911,-0.07463 0.03679,-0.138618 0.159938,-0.18628 0.117867,-0.04885 0.247787,-0.07587 0.38559,-0.09319 1.094702,-0.132237 2.17601,-0.347761 3.238252,-0.641247 -0.01293,-0.04763 -0.02555,-0.09298 -0.03801,-0.136191 z m 1.923143,-0.439426 c -0.03068,-0.111873 -0.105454,-0.193503 -0.221034,-0.239554 -0.119293,-0.03999 -0.245321,-0.02775 -0.379903,0.02385 -0.133888,0.05133 -0.239007,0.129117 -0.314594,0.22379 -0.07636,0.09564 -0.104579,0.179044 -0.08185,0.261615 0.02469,0.08972 0.09401,0.156518 0.210292,0.204628 0.117088,0.05215 0.248346,0.07481 0.391289,0.05406 0.143628,-0.02085 0.254362,-0.08194 0.333102,-0.192083 0.07285,-0.108315 0.09332,-0.224652 0.0627,-0.336303 z m -2.014001,1.97899 c -0.979443,-0.522639 -1.99052,-0.97875 -3.027561,-1.363009 -0.130254,-0.04915 -0.247397,-0.107798 -0.346597,-0.186408 -0.102809,-0.0826 -0.135275,-0.164211 -0.09418,-0.236421 0.04255,-0.07477 0.131962,-0.09268 0.258886,-0.0506 0.124443,0.03732 0.240607,0.100357 0.354827,0.181195 0.900691,0.646689 1.841211,1.232219 2.816235,1.750916 0.0131,-0.03021 0.02584,-0.06205 0.03839,-0.09567 z m 1.72875,0.974215 c 0.03915,-0.08663 0.02928,-0.190252 -0.03188,-0.300064 -0.06806,-0.108852 -0.170044,-0.186454 -0.304292,-0.24092 -0.133671,-0.05423 -0.259188,-0.06756 -0.37279,-0.05255 -0.113943,0.01506 -0.182089,0.05006 -0.209023,0.111783 -0.02935,0.06725 -0.01012,0.143293 0.05461,0.238831 0.06278,0.09722 0.153184,0.190294 0.273263,0.2703 0.120662,0.08039 0.238725,0.123535 0.357597,0.117854 0.114049,-0.0085 0.193375,-0.05861 0.232519,-0.145231 z m -2.354747,-0.334 c -0.467478,-0.999065 -1.004592,-1.966178 -1.60567,-2.896013 -0.07509,-0.117877 -0.132654,-0.236639 -0.164452,-0.362373 -0.03223,-0.131176 -0.0082,-0.219995 0.06375,-0.256056 0.07518,-0.03768 0.152165,8.65e-4 0.224253,0.109863 0.07248,0.103385 0.124678,0.223835 0.167115,0.356214 0.331105,1.053635 0.736614,2.084112 1.211203,3.085758 0.03644,-0.01233 0.07099,-0.02474 0.103797,-0.03739 z m 0.791473,1.80561 c 0.09169,-0.03693 0.148211,-0.115105 0.164291,-0.229478 0.01,-0.117603 -0.02787,-0.236979 -0.102293,-0.361216 -0.07404,-0.123593 -0.165026,-0.217195 -0.263633,-0.282487 -0.0996,-0.06595 -0.177442,-0.08794 -0.24349,-0.06239 -0.07175,0.02776 -0.114308,0.09599 -0.131524,0.20875 -0.0205,0.113533 -0.01323,0.240109 0.03397,0.37628 0.04741,0.136789 0.123019,0.240755 0.235301,0.310559 0.109487,0.06427 0.215688,0.07691 0.307379,0.03998 z m -2.3238,-1.697443 c 0.347706,-1.047493 0.62,-2.116857 0.811558,-3.20242 0.02482,-0.136574 0.05942,-0.263992 0.115497,-0.377804 0.05923,-0.118442 0.12917,-0.168238 0.201881,-0.144032 0.07534,0.02508 0.104738,0.108184 0.08298,0.23871 -0.01772,0.127425 -0.06096,0.251378 -0.120637,0.377352 -0.478652,0.994499 -0.886379,2.019945 -1.217511,3.071012 0.04,0.0123 0.08203,0.02464 0.126232,0.03718 z m -0.66454,1.858317 c 0.105855,0.0321 0.21925,0.01347 0.327889,-0.05742 0.105889,-0.07795 0.168992,-0.187656 0.197794,-0.329644 0.02867,-0.141354 0.0127,-0.271916 -0.03349,-0.389036 -0.04627,-0.117323 -0.104334,-0.186118 -0.181812,-0.209438 -0.08439,-0.0254 -0.165533,0.0012 -0.25583,0.07715 -0.09265,0.0741 -0.17268,0.17695 -0.230851,0.308198 -0.05845,0.131877 -0.07672,0.256953 -0.04138,0.377219 0.03733,0.11525 0.11161,0.190809 0.217676,0.222978 z m -0.177571,-2.354629 c 0.907716,-0.636545 1.774596,-1.332962 2.595316,-2.08358 0.104169,-0.09394 0.212625,-0.169837 0.332359,-0.220466 0.125203,-0.05189 0.218143,-0.04041 0.268449,0.02866 0.05251,0.0721 0.03023,0.158034 -0.0634,0.25034 -0.08803,0.09202 -0.196666,0.165708 -0.320465,0.230537 -0.986613,0.508499 -1.940305,1.08252 -2.855404,1.716736 0.01385,0.02737 0.02819,0.05325 0.04315,0.07778 z m -1.648803,1.098043 c 0.04588,0.07437 0.128682,0.108935 0.241883,0.09919 0.115308,-0.01594 0.226733,-0.0757 0.337534,-0.169884 0.110284,-0.09375 0.188522,-0.196125 0.239354,-0.298653 0.05129,-0.103448 0.0636,-0.176977 0.03259,-0.229154 -0.03367,-0.05664 -0.102128,-0.07843 -0.210999,-0.06876 -0.109673,0.007 -0.230052,0.04064 -0.356275,0.111143 -0.126786,0.07082 -0.220433,0.159457 -0.276992,0.273696 -0.05155,0.110659 -0.05297,0.208046 -0.0071,0.282417 z"
         transform="matrix(0.6897476,0,0,0.68854248,11.306181,17.081745)"
         inkscape:original-d="m 19.584629,16.942167 a 4.4979167,4.4979167 0 0 1 -4.497917,4.497917 4.4979167,4.4979167 0 0 1 -4.497917,-4.497917 4.4979167,4.4979167 0 0 1 4.497917,-4.497916 4.4979167,4.4979167 0 0 1 4.497917,4.497916 z"
         inkscape:path-effect="#path-effect2-3-5"
         inkscape:label="red" />
    </g>
    <g
       id="g214"
       inkscape:label="?"
       transform="matrix(-1.9146341,0,0,1.9554123,83.079164,0)">
      <path
         style="fill:#212121;fill-opacity:1;stroke-width:0.439473"
         id="path21"
         sodipodi:type="arc"
         sodipodi:cx="0"
         sodipodi:cy="0"
         sodipodi:rx="24.870832"
         sodipodi:ry="24.870832"
         sodipodi:start="0"
         sodipodi:end="1.5707963"
         sodipodi:arc-type="slice"
         d="M 24.870832,0 A 24.870832,24.870832 0 0 1 0,24.870832 V 0 Z"
         inkscape:label="black" />
      <path
         id="path231"
         style="fill:#b71b0f;stroke-width:0.439473"
         d="m 18.792651,0.5343343 c -0.378804,-0.009681 -0.701409,0.082881 -0.968416,0.25993246 -0.252065,0.1976223 -0.406994,0.49106224 -0.485242,0.88728434 -0.03217,0.2910833 -0.0069,0.532398 0.08268,0.7332886 0.08941,0.200517 0.207336,0.3635401 0.358118,0.4873087 0.167762,0.126954 0.317099,0.2052709 0.451652,0.2309937 0.184545,0.03528 0.368287,0.030827 0.551388,-0.01757 0.179324,-0.028573 0.345792,-0.082341 0.498677,-0.1617473 0.258866,0.106882 0.496599,0.3399982 0.698149,0.7121013 0.218073,0.3751091 0.355725,0.8495831 0.393774,1.4159342 0.03209,0.5879014 -0.06087,1.1897812 -0.280086,1.7797363 -0.367696,0.9895594 -0.868033,1.6762989 -1.41025,2.0582723 -0.543107,0.3826009 -1.10357,0.5244042 -1.65933,0.4552693 C 16.46588,9.3057422 15.928727,9.0826586 15.398026,8.7338337 14.572892,8.1818477 14.010732,7.4735138 13.644128,6.6936482 13.291833,5.9205401 12.963576,5.1780713 12.661759,4.4875813 12.468171,4.0634758 12.258747,3.6693458 12.036991,3.3052246 11.811322,2.9531745 11.552704,2.6697963 11.276314,2.444812 10.999633,2.2195918 10.672881,2.0740458 10.307381,1.9879923 9.6969977,1.8442834 9.2304388,1.8603764 8.9312377,1.9983276 8.6229371,2.1477932 8.4279088,2.3229152 8.3333414,2.5553995 8.2745383,2.6999609 8.2361922,2.8718644 8.2108682,3.078365 c -0.00978,0.2134478 0.012863,0.4218644 0.072864,0.6278687 0.2923224,0.091814 0.5869596,0.1780522 0.8831502,0.2594157 -0.016263,-0.1141528 -0.01735,-0.2236611 -0.00258,-0.3296957 0.030249,-0.098757 0.06166,-0.1839445 0.095601,-0.2573486 0.097177,-0.2101612 0.237211,-0.3304362 0.4345988,-0.3653524 0.2090084,-0.019294 0.4104218,0.00144 0.6030648,0.070797 0.319576,0.1150634 0.612348,0.3462645 0.843359,0.7250204 0.246436,0.3844803 0.467911,0.8574776 0.634586,1.4262695 0.16665,0.5687009 0.322744,1.191386 0.455787,1.8660359 0.133103,0.674966 0.296138,1.3402224 0.510046,1.9890259 0.216918,0.6713099 0.553792,1.2717356 1.058333,1.7663006 0.528852,0.490512 1.172067,0.827225 1.95647,0.945678 0.766829,0.133908 1.64483,-0.06023 2.568835,-0.670243 0.910856,-0.590456 1.834827,-1.7236494 2.513542,-3.4271807 0.54929,-1.3786784 0.70048,-2.6903062 0.529167,-3.7940836 C 21.212764,2.8080543 20.833786,1.9545268 20.317106,1.3678751 19.814347,0.802868 19.292369,0.54710539 18.792651,0.5343343 Z M 3.5775594,0.66300862 c -0.075027,0.001351 -0.1188831,0.0137934 -0.1322917,0.0403076 -0.03084,0.0609827 0.073096,0.16953376 0.3074748,0.34209798 0.2299229,0.1739143 0.5359629,0.3720334 0.9157063,0.5622396 0.3691651,0.1849077 0.6994297,0.3039642 1.010791,0.342098 0.3211325,0.050401 0.5184349,-0.00101 0.5761923,-0.1333252 C 6.3056557,1.7013673 6.203173,1.5395481 5.9417561,1.3565063 5.6950307,1.1776485 5.3719657,1.0452273 4.9779907,0.92914224 4.5305613,0.79730692 4.1476703,0.71931704 3.8979532,0.68988036 3.7591482,0.67182762 3.6525864,0.66165776 3.5775594,0.66300862 Z M 1.2547038,2.8695923 c -0.00361,5.33e-4 -0.0071,0.00159 -0.010335,0.0031 -0.059564,0.027715 -0.056473,0.1810655 -0.014469,0.4712891 0.037908,0.2815749 0.1075265,0.6514947 0.2175578,1.0526489 0.108348,0.395018 0.2316322,0.7207872 0.398942,0.973584 C 2.0124492,5.6392482 2.1720762,5.7467121 2.3042521,5.6931925 2.4191876,5.6466536 2.4718074,5.4547447 2.4375773,5.1294026 2.4100403,4.8166148 2.2981311,4.4841248 2.1197672,4.1129272 1.9150993,3.6869876 1.7160737,3.3673969 1.5606282,3.168282 1.4051953,2.9629492 1.3088285,2.8615961 1.2547038,2.8695923 Z M 3.4276977,7.6599975 C 3.3291761,7.6650212 3.2371466,7.6851415 3.1496785,7.7204589 3.0044682,7.7790911 2.8563249,7.8695724 2.696993,7.9912434 2.5431777,8.1287817 2.4174219,8.2847378 2.3171712,8.4645995 c 0.1207414,0.2778064 0.2479621,0.5536288 0.3808553,0.8268229 0.068411,-0.087832 0.143623,-0.1617006 0.2273763,-0.2222086 0.088727,-0.044237 0.1698531,-0.07923 0.2444295,-0.1043864 0.2136679,-0.072074 0.3952422,-0.053887 0.5534546,0.066146 0.154531,0.1394313 0.274524,0.3014109 0.3524333,0.4904093 0.1298488,0.314998 0.1527856,0.6870383 0.028939,1.1151773 -0.1174377,0.442217 -0.3147411,0.926548 -0.6159831,1.42782 -0.301324,0.501407 -0.6495776,1.028083 -1.0578166,1.566312 -0.4070776,0.5367 -0.8016186,1.093605 -1.1580688,1.671733 -0.2446298,0.391553 -0.43825001,0.802008 -0.56068927,1.23765 -0.0646532,0.228803 -0.10963355,0.46451 -0.1317749,0.707451 -0.0257662,0.412242 0.012396,0.820923 0.1317749,1.224215 0.0888112,0.300107 0.22282909,0.594991 0.40721027,0.882116 0.4068146,0.668208 1.1578318,1.197114 2.2691121,1.477429 1.0773883,0.281108 2.5963695,0.205634 4.3325521,-0.424263 1.4019675,-0.508643 2.4604361,-1.258589 3.1470941,-2.102714 0.696831,-0.831261 1.063265,-1.660334 1.154452,-2.426725 0.08421,-0.739564 -0.0633,-1.300754 -0.371554,-1.687753 -0.23512,-0.295186 -0.510035,-0.48357 -0.81442,-0.574125 -0.30995,-0.066 -0.631054,0.0041 -0.9797852,0.202572 -0.2396195,0.164915 -0.4045734,0.342856 -0.495577,0.542086 -0.090858,0.198919 -0.1339408,0.394461 -0.1260905,0.589111 0.016727,0.20949 0.058053,0.373052 0.1281576,0.490926 0.096186,0.161729 0.2210223,0.296666 0.3777547,0.402559 0.1396688,0.116067 0.2889284,0.206359 0.4480344,0.269751 0.09195,0.263727 0.07824,0.595008 -0.06046,0.989087 -0.1301776,0.409088 -0.3851657,0.822584 -0.7756634,1.223698 -0.4104113,0.410969 -0.9169452,0.73962 -1.5037842,0.968933 -0.9850723,0.384929 -1.8469818,0.473429 -2.502174,0.328146 C 4.6873835,19.476318 4.1999085,19.15662 3.8793497,18.6986 3.5574962,18.238738 3.3702268,17.692644 3.2830037,17.067175 3.1550378,16.090654 3.3192502,15.202351 3.6524902,14.416174 3.9773582,13.67428 4.3288059,12.872542 4.6219401,12.214758 4.8050225,11.785576 4.9573176,11.362265 5.0823771,10.949202 5.1957028,10.541505 5.2392566,10.154068 5.2275878,9.7937173 5.2158767,9.4320883 5.1104012,9.0899288 4.9304483,8.7596719 4.6291864,8.2067835 4.2986438,7.8784256 3.9811523,7.7586995 3.8157563,7.7000661 3.6658628,7.6667126 3.5284668,7.6599975 c -0.034349,-0.00168 -0.067928,-0.00167 -0.1007691,0 z"
         inkscape:label="red" />
    </g>
    <g
       id="g146"
       inkscape:label="!"
       transform="matrix(-1.9145555,0,0,1.9553816,83.079016,0.00115975)">
      <path
         style="fill:#212121;fill-opacity:1;stroke-width:0.673234"
         id="path21-0"
         sodipodi:type="arc"
         sodipodi:cx="-43.391983"
         sodipodi:cy="-83.079948"
         sodipodi:rx="38.099998"
         sodipodi:ry="38.099998"
         sodipodi:start="0"
         sodipodi:end="1.5707963"
         sodipodi:arc-type="slice"
         d="M -5.2919846,-83.079948 A 38.099998,38.099998 0 0 1 -43.391983,-44.97995 v -38.099998 z"
         transform="scale(-1)"
         inkscape:label="black" />
      <path
         id="path213"
         style="fill:#b71b0f;stroke-width:0.439473"
         d="m 43.349808,37.879341 c -0.09594,-7.5e-4 -0.193444,6.93e-4 -0.293005,0.0041 -1.519609,0.05356 -2.607757,0.598161 -3.221509,1.522388 -0.573385,0.88769 -0.724211,1.790838 -0.532784,2.694926 1.679174,7.176756 2.852504,14.46929 3.488676,21.847762 0.187592,0.009 0.373873,0.02486 0.558622,0.04702 0.01389,-0.0017 0.02795,-0.0025 0.04186,-0.0041 v -26.1059 c -0.01504,-0.0011 -0.02672,-0.0052 -0.04186,-0.0062 z m -15.706534,3.803386 c -0.559927,0.01114 -1.180981,0.175285 -1.851567,0.501778 -1.298506,0.632207 -2.030079,1.53807 -2.192631,2.613277 -0.141781,1.025833 0.0917,1.905295 0.633036,2.651518 4.436972,5.856857 8.505045,11.957217 12.173417,18.270202 0.310593,-0.174977 0.623353,-0.338934 0.937411,-0.490926 C 34.723835,58.389796 32.528181,51.38283 30.784684,44.240193 30.547373,43.348848 30.013629,42.620314 29.127937,42.097688 28.702124,41.81307 28.203198,41.671586 27.643274,41.682727 Z m -13.004891,9.653674 c -0.881296,-0.03731 -1.786345,0.418646 -2.644283,1.395263 -0.949591,1.080949 -1.281366,2.203091 -1.028878,3.265951 0.253171,1.009114 0.794787,1.738423 1.57148,2.226221 6.268324,3.755798 12.305385,7.882261 18.079517,12.3486 0.243505,-0.287194 0.494819,-0.569353 0.752925,-0.84491 -4.97884,-5.367323 -9.659685,-11.042474 -14.012581,-16.993278 -0.56118,-0.734874 -1.33154,-1.205021 -2.341976,-1.351855 -0.124732,-0.02539 -0.250304,-0.04066 -0.376204,-0.04599 z M 6.4724731,65.330895 c -0.085745,-3.5e-5 -0.1724367,0.0032 -0.2599325,0.0098 -0.2333218,0.01766 -0.4729524,0.05899 -0.7188191,0.125573 -0.9924896,0.208839 -1.7912371,1.035006 -2.2799642,2.480469 -0.4735205,1.400491 -0.3604422,2.591996 0.2702677,3.479891 0.6115363,0.837851 1.3844474,1.289384 2.2820312,1.418518 7.1732308,0.873581 14.2524998,2.244942 21.2059408,4.083472 0.100586,-0.32213 0.214228,-0.644512 0.340547,-0.966349 C 20.74054,73.010515 14.341994,69.610879 8.1462727,65.795983 7.6300489,65.493018 7.0726871,65.331143 6.4724731,65.330895 Z m 36.7925859,4.930449 c -0.176321,-0.01238 -0.330881,0.299041 -0.407727,0.912089 -0.08368,0.667528 -0.03959,1.451805 0.07338,2.414839 0.111715,0.952301 0.247979,1.769586 0.335897,2.475818 0.05302,0.411673 0.07509,0.687046 0.0832,0.869198 0.0026,-0.132269 0.02284,-0.368176 0.04186,-0.595313 v -6.031156 c -0.0142,-0.0033 -0.02723,-0.01735 -0.04186,-0.01654 -0.01602,-0.0098 -0.03243,-0.01704 -0.04909,-0.02222 -0.01193,-0.0037 -0.0239,-0.0059 -0.03566,-0.0067 z m -3.54552,0.751892 c -0.05714,0.0038 -0.111654,0.02017 -0.162781,0.04858 -0.250861,0.139406 -0.328248,0.579359 -0.180867,1.284676 0.148918,0.71267 0.486705,1.455007 0.979268,2.281514 0.485151,0.814066 0.976522,1.479744 1.394747,1.989026 0.411955,0.480905 0.64594,0.696395 0.745174,0.626835 0.09924,-0.06956 0.04613,-0.410808 -0.10387,-1.049032 -0.156945,-0.645669 -0.39255,-1.483795 -0.711584,-2.355928 -0.329166,-0.899832 -0.667435,-1.629338 -1.084172,-2.180229 -0.302893,-0.413453 -0.582175,-0.627522 -0.818037,-0.644922 -0.01966,-0.0014 -0.03883,-0.0018 -0.05788,-5.16e-4 z m -3.718636,3.131075 c -0.180808,0.0038 -0.325084,0.06445 -0.428914,0.179317 -0.218346,0.241556 -0.155685,0.686899 0.217041,1.288293 0.375387,0.605696 0.95414,1.167546 1.71359,1.74718 0.747053,0.570176 1.464223,1.009061 2.065507,1.32085 0.589692,0.289102 0.926151,0.392921 1.040763,0.270785 0.114613,-0.122139 -0.01421,-0.446868 -0.352433,-1.010791 -0.357575,-0.580804 -0.85387,-1.261692 -1.493449,-1.959054 -0.649139,-0.707789 -1.260611,-1.236868 -1.890324,-1.564246 -0.307828,-0.167123 -0.573673,-0.256028 -0.792199,-0.270267 -0.02732,-0.0018 -0.05375,-0.0026 -0.07958,-0.0021 z m 7.350972,3.030306 c -6.93e-4,0.01102 -0.0023,0.02738 -0.0021,0.03101 0.0014,-0.0011 0.003,-0.0063 0.0041,-0.01499 1.51e-4,-0.0011 -0.0013,-0.0093 -0.0021,-0.01602 z m -9.72292,0.987536 c -0.408521,-8.65e-4 -0.657626,0.110775 -0.732255,0.312643 -0.09155,0.24762 0.155853,0.572789 0.749825,0.915706 0.599007,0.345825 1.35841,0.589676 2.275313,0.81132 0.871197,0.210595 1.740037,0.368246 2.349727,0.471289 0.61986,0.0973 0.937361,0.137552 0.973068,0.05891 0.03571,-0.07864 -0.216662,-0.263819 -0.743108,-0.603064 -0.550443,-0.348032 -1.256414,-0.764192 -2.102197,-1.160652 -0.860408,-0.40332 -1.612331,-0.67101 -2.30942,-0.766879 -0.170993,-0.02617 -0.32478,-0.03898 -0.460953,-0.03927 z m 5.5578,3.029789 c -0.08906,-0.003 -0.349444,0.01394 -0.787549,0.02067 -0.782209,0.01377 -1.563384,-0.0014 -2.345593,0.0124 -0.954643,0.0168 -1.773186,0.06682 -2.475818,0.22996 -0.692632,0.153728 -1.045662,0.375511 -1.045931,0.611849 -2.47e-4,0.217435 0.347387,0.373128 1.016475,0.397909 0.68024,0.02519 1.451688,-0.09963 2.373499,-0.322461 0.891071,-0.215399 1.701906,-0.465754 2.32699,-0.648539 0.613091,-0.185264 0.937656,-0.26462 0.969966,-0.290939 0.0081,-0.0066 -0.0024,-0.0098 -0.03204,-0.01085 z M 4.3893961,81.833247 c -0.7868924,0.01521 -1.5247741,0.306457 -2.194698,0.923975 -0.1168155,0.09583 -0.2207594,0.20536 -0.3178101,0.321944 H 26.49399 C 26.47145,82.850276 26.44792,82.621123 26.4418,82.39497 19.255732,82.747798 12.007877,82.573828 4.72943,81.843582 4.6150635,81.834682 4.5018123,81.831072 4.3893991,81.833252 Z m 35.2490109,0.599447 c -0.175008,0.0037 -0.462619,0.07855 -0.870748,0.210323 -0.342495,0.114127 -0.733891,0.263017 -1.147733,0.436149 h 1.906343 c 0.230367,-0.289965 0.363738,-0.505339 0.295589,-0.591695 -0.0225,-0.02851 -0.06077,-0.04573 -0.115238,-0.05219 -0.02042,-0.0024 -0.04321,-0.0031 -0.06821,-0.0026 z"
         inkscape:label="red" />
    </g>
  </g>
</svg>
