<!DOCTYPE svg PUBLIC "-//W3C//DTD SVG 1.1//EN" "http://www.w3.org/Graphics/SVG/1.1/DTD/svg11.dtd">
<!-- Uploaded to: SVG Repo, www.svgrepo.com, Transformed by: SVG Repo Mixer Tools -->
<svg width="800px" height="800px" viewBox="0 0 32 32" id="OBJECT" xmlns="http://www.w3.org/2000/svg" fill="#B71B0F" stroke="#B71B0F">
<g id="SVGRepo_bgCarrier" stroke-width="0"/>
<g id="SVGRepo_tracerCarrier" stroke-linecap="round" stroke-linejoin="round"/>
<g id="SVGRepo_iconCarrier">
<defs>
<style>.cls-1{fill:#EEEEEE;}</style>
</defs>
<title/>
<rect class="cls-1" height="30" rx="2" ry="2" width="18" x="1" y="1"/>
<path d="M26.58,6.85a1,1,0,0,0-.92-.12L16.5,10H11.67A2.66,2.66,0,0,0,9,12.67v7.66h7.5l9.16,3.28a1,1,0,0,0,.34.06,1,1,0,0,0,.58-.19,1,1,0,0,0,.42-.81v-15A1,1,0,0,0,26.58,6.85Z"/>
<path d="M16.48,10H11.67A2.66,2.66,0,0,0,9,12.67v7.66h7.48Z"/>
<path class="cls-1" d="M28,5H26a1,1,0,0,0-1,1V24.33a1,1,0,0,0,1,1h2a3,3,0,0,0,3-3V8A3,3,0,0,0,28,5Z"/>
<path d="M15,18.72a1,1,0,0,0-.79-.39H10a1,1,0,0,0-1,1v6.5a1,1,0,0,0,1,1h2.5a1,1,0,0,0,1-.75l1.67-6.5A1,1,0,0,0,15,18.72Z"/>
<path d="M5.29,1l.16,1a.85.85,0,0,0,0,.17A2.58,2.58,0,0,0,8,4h4.1a2.58,2.58,0,0,0,2.46-1.78.85.85,0,0,0,0-.17l.16-1Z"/>
</g>
</svg>